ModelForces
version=1
nRows=4
nColumns=206
inDegrees=no

This file contains the forces exerted on a model during a simulation.

A force is a generalized force, meaning that it can be either a force (N) or a torque (Nm).

Units are S.I. units (second, meters, Newtons, ...)
Angles are in degrees.

endheader
time	glut_med1_r	glut_med2_r	glut_med3_r	glut_min1_r	glut_min2_r	glut_min3_r	semimem_r	semiten_r	bifemlh_r	bifemsh_r	sar_r	add_long_r	add_brev_r	add_mag1_r	add_mag2_r	add_mag3_r	tfl_r	pect_r	grac_r	glut_max1_r	glut_max2_r	glut_max3_r	iliacus_r	psoas_r	quad_fem_r	gem_r	peri_r	rect_fem_r	vas_med_r	vas_int_r	vas_lat_r	med_gas_r	lat_gas_r	soleus_r	tib_post_r	flex_dig_r	flex_hal_r	tib_ant_r	per_brev_r	per_long_r	per_tert_r	ext_dig_r	ext_hal_r	glut_med1_l	glut_med2_l	glut_med3_l	glut_min1_l	glut_min2_l	glut_min3_l	semimem_l	semiten_l	bifemlh_l	bifemsh_l	sar_l	add_long_l	add_brev_l	add_mag1_l	add_mag2_l	add_mag3_l	tfl_l	pect_l	grac_l	glut_max1_l	glut_max2_l	glut_max3_l	iliacus_l	psoas_l	quad_fem_l	gem_l	peri_l	rect_fem_l	vas_med_l	vas_int_l	vas_lat_l	med_gas_l	lat_gas_l	soleus_l	tib_post_l	flex_dig_l	flex_hal_l	tib_ant_l	per_brev_l	per_long_l	per_tert_l	ext_dig_l	ext_hal_l	ercspn_r	ercspn_l	intobl_r	intobl_l	extobl_r	extobl_l	femur_lat_meniscii_l.femur_lat_l.force.X	femur_lat_meniscii_l.femur_lat_l.force.Y	femur_lat_meniscii_l.femur_lat_l.force.Z	femur_lat_meniscii_l.femur_lat_l.torque.X	femur_lat_meniscii_l.femur_lat_l.torque.Y	femur_lat_meniscii_l.femur_lat_l.torque.Z	femur_lat_meniscii_l.meniscus_lat_l.force.X	femur_lat_meniscii_l.meniscus_lat_l.force.Y	femur_lat_meniscii_l.meniscus_lat_l.force.Z	femur_lat_meniscii_l.meniscus_lat_l.torque.X	femur_lat_meniscii_l.meniscus_lat_l.torque.Y	femur_lat_meniscii_l.meniscus_lat_l.torque.Z	femur_med_meniscii_l.femur_med_l.force.X	femur_med_meniscii_l.femur_med_l.force.Y	femur_med_meniscii_l.femur_med_l.force.Z	femur_med_meniscii_l.femur_med_l.torque.X	femur_med_meniscii_l.femur_med_l.torque.Y	femur_med_meniscii_l.femur_med_l.torque.Z	femur_med_meniscii_l.meniscus_med_l.force.X	femur_med_meniscii_l.meniscus_med_l.force.Y	femur_med_meniscii_l.meniscus_med_l.force.Z	femur_med_meniscii_l.meniscus_med_l.torque.X	femur_med_meniscii_l.meniscus_med_l.torque.Y	femur_med_meniscii_l.meniscus_med_l.torque.Z	femur_lat_meniscii_r.femur_lat_r.force.X	femur_lat_meniscii_r.femur_lat_r.force.Y	femur_lat_meniscii_r.femur_lat_r.force.Z	femur_lat_meniscii_r.femur_lat_r.torque.X	femur_lat_meniscii_r.femur_lat_r.torque.Y	femur_lat_meniscii_r.femur_lat_r.torque.Z	femur_lat_meniscii_r.meniscus_lat_r.force.X	femur_lat_meniscii_r.meniscus_lat_r.force.Y	femur_lat_meniscii_r.meniscus_lat_r.force.Z	femur_lat_meniscii_r.meniscus_lat_r.torque.X	femur_lat_meniscii_r.meniscus_lat_r.torque.Y	femur_lat_meniscii_r.meniscus_lat_r.torque.Z	femur_med_meniscii_r.femur_med_r.force.X	femur_med_meniscii_r.femur_med_r.force.Y	femur_med_meniscii_r.femur_med_r.force.Z	femur_med_meniscii_r.femur_med_r.torque.X	femur_med_meniscii_r.femur_med_r.torque.Y	femur_med_meniscii_r.femur_med_r.torque.Z	femur_med_meniscii_r.meniscus_med_r.force.X	femur_med_meniscii_r.meniscus_med_r.force.Y	femur_med_meniscii_r.meniscus_med_r.force.Z	femur_med_meniscii_r.meniscus_med_r.torque.X	femur_med_meniscii_r.meniscus_med_r.torque.Y	femur_med_meniscii_r.meniscus_med_r.torque.Z	femur_med_tibia_l.tibia_upper_l.force.X	femur_med_tibia_l.tibia_upper_l.force.Y	femur_med_tibia_l.tibia_upper_l.force.Z	femur_med_tibia_l.tibia_upper_l.torque.X	femur_med_tibia_l.tibia_upper_l.torque.Y	femur_med_tibia_l.tibia_upper_l.torque.Z	femur_med_tibia_l.femur_med_l.force.X	femur_med_tibia_l.femur_med_l.force.Y	femur_med_tibia_l.femur_med_l.force.Z	femur_med_tibia_l.femur_med_l.torque.X	femur_med_tibia_l.femur_med_l.torque.Y	femur_med_tibia_l.femur_med_l.torque.Z	femur_lat_tibia_l.tibia_upper_l.force.X	femur_lat_tibia_l.tibia_upper_l.force.Y	femur_lat_tibia_l.tibia_upper_l.force.Z	femur_lat_tibia_l.tibia_upper_l.torque.X	femur_lat_tibia_l.tibia_upper_l.torque.Y	femur_lat_tibia_l.tibia_upper_l.torque.Z	femur_lat_tibia_l.femur_lat_l.force.X	femur_lat_tibia_l.femur_lat_l.force.Y	femur_lat_tibia_l.femur_lat_l.force.Z	femur_lat_tibia_l.femur_lat_l.torque.X	femur_lat_tibia_l.femur_lat_l.torque.Y	femur_lat_tibia_l.femur_lat_l.torque.Z	femur_med_tibia_r.tibia_upper_r.force.X	femur_med_tibia_r.tibia_upper_r.force.Y	femur_med_tibia_r.tibia_upper_r.force.Z	femur_med_tibia_r.tibia_upper_r.torque.X	femur_med_tibia_r.tibia_upper_r.torque.Y	femur_med_tibia_r.tibia_upper_r.torque.Z	femur_med_tibia_r.femur_med_r.force.X	femur_med_tibia_r.femur_med_r.force.Y	femur_med_tibia_r.femur_med_r.force.Z	femur_med_tibia_r.femur_med_r.torque.X	femur_med_tibia_r.femur_med_r.torque.Y	femur_med_tibia_r.femur_med_r.torque.Z	femur_lat_tibia_r.tibia_upper_r.force.X	femur_lat_tibia_r.tibia_upper_r.force.Y	femur_lat_tibia_r.tibia_upper_r.force.Z	femur_lat_tibia_r.tibia_upper_r.torque.X	femur_lat_tibia_r.tibia_upper_r.torque.Y	femur_lat_tibia_r.tibia_upper_r.torque.Z	femur_lat_tibia_r.femur_lat_r.force.X	femur_lat_tibia_r.femur_lat_r.force.Y	femur_lat_tibia_r.femur_lat_r.force.Z	femur_lat_tibia_r.femur_lat_r.torque.X	femur_lat_tibia_r.femur_lat_r.torque.Y	femur_lat_tibia_r.femur_lat_r.torque.Z	aACL_R	pACL_R	aPCL_R	pPCL_R	aMCL_R	mMCL_R	pMCL_R	aLCL_R	mLCL_R	pLCL_R	aPCL_L	pPCL_L	aMCL_L	aLCL_L	ground_prescribedForce_-80_fx	ground_prescribedForce_-80_fy	ground_prescribedForce_-80_fz
      0.23847124	      9.03126770	      6.68306573	      7.16839689	      3.11444507	      3.67292690	      3.81867849	      0.00000000	      4.33020344	      5.15717267	      6.86855015	      1.81419352	      6.63405387	      4.84345163	      3.43917387	      2.90245436	      4.79852162	      3.39898519	      2.62494944	      1.74426038	      4.31264450	      6.55694195	      4.90921179	     24.49795047	     15.05797606	      4.26271668	      3.15509022	      5.20281306	    131.45947361	     45.84117618	     31.33065001	     63.66230363	      0.00000000	      0.00000000	     13.19540944	     14.95202718	      2.44409621	      3.14414469	     15.17858540	      3.74787343	      9.75117285	      6.61391078	      8.39224545	      2.63465953	      9.03126770	      6.68306573	      7.16839689	      3.11444507	      3.67292690	      3.81867849	     10.86735360	      4.87756606	      9.46294480	      8.48254560	      1.77879811	      6.63405387	      4.84345163	      3.43917387	      2.90245436	      4.79852162	      4.59940701	      2.62494944	      1.82943242	      4.31264450	      6.55694195	      4.90921179	     24.49795047	     15.05797606	      4.26271668	      3.15509022	      5.20281306	     13.09550562	      7.80801635	      8.98525370	      9.65448633	     18.35673644	      8.52617820	     39.54963430	     45.78352041	      3.64179359	      3.74495615	     10.28840147	      5.40916656	     14.84972290	      2.32953693	      6.68176309	      2.10177073	     29.30112424	     29.30112424	     10.69414396	     10.69414396	     28.32747584	     28.32747584	      2.76307435	     50.99597937	     -9.56042239	      5.21997485	     -0.02578839	      1.48581788	     -2.76307435	    -50.99597937	      9.56042239	     -1.74637766	      0.02558040	     -0.48301696	     -3.31599387	     20.97615968	     -3.40468921	      0.94473225	     -0.02138609	     -1.00501789	      3.31599387	    -20.97615968	      3.40468921	      0.28075727	      0.00368718	     -0.29758878	    229.21434118	     44.62857099	     40.21240852	    -17.39973025	      5.66037377	     93.45423220	   -229.21434118	    -44.62857099	    -40.21240852	      1.59719325	     -7.88491379	     -0.90951064	    118.50687004	    -48.83307959	    -17.81106995	      6.24055594	     -2.38476270	     47.95622736	   -118.50687004	     48.83307959	     17.81106995	      0.61822395	      2.30605928	     -2.10519927	      0.00000000	      0.00000000	      0.00000000	      0.00000000	      0.00000000	      0.00000000	      0.00000000	      0.00000000	      0.00000000	      0.00000000	      0.00000000	      0.00000000	      0.00000000	      0.00000000	      0.00000000	      0.00000000	      0.00000000	      0.00000000	      0.00000000	      0.00000000	      0.00000000	      0.00000000	      0.00000000	      0.00000000	   -429.21617328	    -41.46985463	     84.49222778	     -1.19074117	      7.87042122	     -2.08763445	    429.21617328	     41.46985463	    -84.49222778	     35.04819825	     -7.60083333	    174.21409289	     -4.20491975	     -1.53665747	     -1.23444049	      0.05512061	     -0.15704771	      0.00771034	      4.20491975	      1.53665747	      1.23444049	     -0.53942101	      0.10245109	      1.70994285	      0.00000000	      0.00000000	    591.52394025	    231.23860492	     26.00364955	     12.34299900	      3.37209018	      0.00000000	      0.00000000	      0.00000000	      0.00000000	      0.00000000	      0.00000001	      0.00000000	     19.10100000	   -108.32880000	      0.00000000
      0.24025702	      8.99702367	      6.65966744	      7.14298727	      3.10400225	      3.66157422	      3.80423230	      0.00000000	      4.30880308	      5.13052471	      6.83702603	      1.80721936	      6.61055287	      4.82736138	      3.42720725	      2.89211287	      4.77978416	      3.39303060	      2.61608865	      1.73640704	      4.29752756	      6.53389427	      4.89165348	     24.45525696	     15.00953281	      4.24810934	      3.14811592	      5.17823464	    131.49099753	     45.78494778	     31.25787254	     63.57508338	      0.00000000	      0.00000000	     13.13294125	     14.91261050	      2.48009166	      3.12551797	     15.11224707	      3.73828583	      9.68855117	      6.62773965	      8.25723805	      2.60458521	      8.99702367	      6.65966744	      7.14298727	      3.10400225	      3.66157422	      3.80423230	     10.81912012	      4.85923449	      9.42223211	      8.45345363	      1.77286142	      6.61055287	      4.82736138	      3.42720725	      2.89211287	      4.77978416	      4.58779527	      2.61608865	      1.82321925	      4.29752756	      6.53389427	      4.89165348	     24.45525696	     15.00953281	      4.24810934	      3.14811592	      5.17823464	     13.03986035	      7.77996300	      8.95237392	      9.61927541	     18.26443818	      8.48325478	     39.36240114	     45.70595587	      3.62203353	      3.72656903	     10.24613000	      5.38483767	     14.79713840	      2.32205317	      6.64848736	      2.09149416	     29.20265220	     29.20265220	     10.65508880	     10.65508880	     28.29232724	     28.29232724	      2.76307435	     50.99597937	     -9.56042239	      5.21997485	     -0.02578839	      1.48581788	     -2.76307435	    -50.99597937	      9.56042239	     -1.74637766	      0.02558040	     -0.48301696	     -3.31599387	     20.97615968	     -3.40468921	      0.94473225	     -0.02138609	     -1.00501789	      3.31599387	    -20.97615968	      3.40468921	      0.28075727	      0.00368718	     -0.29758878	    228.25275784	     45.17224873	     41.77535806	    -18.05992321	      5.65112062	     93.05499098	   -228.25275784	    -45.17224873	    -41.77535806	      1.63728116	     -7.91652619	     -0.87512752	    118.84378715	    -48.63038105	    -17.40854049	      6.08381558	     -2.38733298	     48.09044352	   -118.84378715	     48.63038105	     17.40854049	      0.61538484	      2.29474678	     -2.09802669	      0.00000000	      0.00000000	      0.00000000	      0.00000000	      0.00000000	      0.00000000	      0.00000000	      0.00000000	      0.00000000	      0.00000000	      0.00000000	      0.00000000	      0.00000000	      0.00000000	      0.00000000	      0.00000000	      0.00000000	      0.00000000	      0.00000000	      0.00000000	      0.00000000	      0.00000000	      0.00000000	      0.00000000	   -428.95027153	    -41.61770598	     83.22039946	     -1.17957827	      7.81513553	     -2.07392779	    428.95027153	     41.61770598	    -83.22039946	     34.53262377	     -7.58344841	    174.10434703	     -3.68110933	     -1.34981954	     -1.10331053	      0.04868846	     -0.13844316	      0.00692555	      3.68110933	      1.34981954	      1.10331053	     -0.48165994	      0.08998438	      1.49693572	      0.00000000	      0.00000000	    590.93033334	    230.64646215	     25.87048425	     12.19755993	      3.22354636	      0.00000000	      0.00000000	      0.00000000	      0.00000000	      0.00000000	      0.00000001	      0.00000000	     19.10100000	   -108.32880000	      0.00000000
      0.24260271	      8.95325242	      6.62975460	      7.11050465	      3.09064986	      3.64706023	      3.78576672	      0.00000000	      4.28138753	      5.09784732	      6.79511409	      1.79588997	      6.58051017	      4.80678761	      3.41190900	      2.87889343	      4.75583408	      3.38327591	      2.60475946	      1.72622548	      4.27820287	      6.50443142	      4.86920892	     24.40068594	     14.94762261	      4.22943372	      3.13920338	      5.14676832	    131.52675780	     45.71856074	     31.15515807	     63.45863466	      0.00000000	      0.00000000	     13.04916864	     14.84381142	      2.53185093	      3.10516632	     15.02892761	      3.73409989	      9.61682766	      6.64595986	      8.07340502	      2.56473094	      8.95325242	      6.62975460	      7.11050465	      3.09064986	      3.64706023	      3.78576672	     10.75742374	      4.83580251	      9.37016910	      8.41625958	      1.76527055	      6.58051017	      4.80678761	      3.41190900	      2.87889343	      4.75583408	      4.57295329	      2.60475946	      1.81527537	      4.27820287	      6.50443142	      4.86920892	     24.40068594	     14.94762261	      4.22943372	      3.13920338	      5.14676832	     12.96870755	      7.74410558	      8.91034934	      9.57427289	     18.14612407	      8.42823385	     39.12270972	     45.60675251	      3.59675156	      3.70305541	     10.19208863	      5.35371453	     14.72981654	      2.31248823	      6.60587001	      2.07833996	     29.07674509	     29.07674509	     10.60516534	     10.60516534	     28.24740130	     28.24740130	      2.76307435	     50.99597937	     -9.56042239	      5.21997485	     -0.02578839	      1.48581788	     -2.76307435	    -50.99597937	      9.56042239	     -1.74637766	      0.02558040	     -0.48301696	     -3.31599387	     20.97615968	     -3.40468921	      0.94473225	     -0.02138609	     -1.00501789	      3.31599387	    -20.97615968	      3.40468921	      0.28075727	      0.00368718	     -0.29758878	    228.47728830	     45.43960826	     40.30058583	    -17.46082106	      5.63841973	     93.14878058	   -228.47728830	    -45.43960826	    -40.30058583	      1.62674964	     -7.86646991	     -0.86805184	    117.08941406	    -48.46019688	    -18.45233477	      6.50649432	     -2.36138107	     47.39149605	   -117.08941406	     48.46019688	     18.45233477	      0.60913528	      2.30504944	     -2.09128049	      0.00000000	      0.00000000	      0.00000000	      0.00000000	      0.00000000	      0.00000000	      0.00000000	      0.00000000	      0.00000000	      0.00000000	      0.00000000	      0.00000000	      0.00000000	      0.00000000	      0.00000000	      0.00000000	      0.00000000	      0.00000000	      0.00000000	      0.00000000	      0.00000000	      0.00000000	      0.00000000	      0.00000000	   -428.80775151	    -41.25368478	     85.60111367	     -1.19502394	      7.90597490	     -2.07869851	    428.80775151	     41.25368478	    -85.60111367	     35.49659142	     -7.61194770	    174.04968229	     -3.11361403	     -1.13637795	     -0.91473298	      0.04082455	     -0.11640281	      0.00564240	      3.11361403	      1.13637795	      0.91473298	     -0.39971265	      0.07589326	      1.26628417	      0.00000000	      0.00000000	    589.87550058	    229.16982244	     25.76006837	     12.02823270	      2.99866838	      0.00000000	      0.00000000	      0.00000000	      0.00000000	      0.00000000	      0.00000001	      0.00000000	     19.10100000	   -108.32880000	      0.00000000
      0.24425245	      8.92326962	      6.60926151	      7.08825201	      3.08150080	      3.63711645	      3.77311785	      0.00000000	      4.26471744	      5.07665426	      6.77428030	      1.79156061	      6.55992904	      4.79268955	      3.40142832	      2.86983773	      4.73942885	      3.37699027	      2.59699698	      1.72058681	      4.26496435	      6.48424774	      4.85383381	     24.36330564	     14.90522183	      4.21663830	      3.13309977	      5.12518129	    131.57854104	     45.72348230	     31.11910433	     63.45141909	      0.00000000	      0.00000000	     12.99147986	     14.77954566	      2.57022285	      3.09257890	     14.96729662	      3.74042698	      9.57690813	      6.66301493	      7.94030180	      2.53623781	      8.92326962	      6.60926151	      7.08825201	      3.08150080	      3.63711645	      3.77311785	     10.71513386	      4.81975168	      9.33449125	      8.39077665	      1.76006915	      6.55992904	      4.79268955	      3.40142832	      2.86983773	      4.73942885	      4.56278692	      2.59699698	      1.80983252	      4.26496435	      6.48424774	      4.85383381	     24.36330564	     14.90522183	      4.21663830	      3.13309977	      5.12518129	     12.91995164	      7.71954415	      8.88156481	      9.54344964	     18.06485576	      8.39044150	     38.95828095	     45.53875989	      3.57941556	      3.68693998	     10.15506487	      5.33237871	     14.68363011	      2.30593694	      6.57662381	      2.06931785	     28.99047438	     28.99047438	     10.57096665	     10.57096665	     28.21662847	     28.21662847	      2.76307435	     50.99597937	     -9.56042239	      5.21997485	     -0.02578839	      1.48581788	     -2.76307435	    -50.99597937	      9.56042239	     -1.74637766	      0.02558040	     -0.48301696	     -3.31599387	     20.97615968	     -3.40468921	      0.94473225	     -0.02138609	     -1.00501789	      3.31599387	    -20.97615968	      3.40468921	      0.28075727	      0.00368718	     -0.29758878	    227.77749748	     46.28821214	     42.09558652	    -18.21705412	      5.64470169	     92.85669805	   -227.77749748	    -46.28821214	    -42.09558652	      1.67191473	     -7.92122827	     -0.82836181	    117.33423981	    -48.19257915	    -17.28215221	      6.04439815	     -2.35380911	     47.48789914	   -117.33423981	     48.19257915	     17.28215221	      0.60614894	      2.26280224	     -2.08135871	      0.00000000	      0.00000000	      0.00000000	      0.00000000	      0.00000000	      0.00000000	      0.00000000	      0.00000000	      0.00000000	      0.00000000	      0.00000000	      0.00000000	      0.00000000	      0.00000000	      0.00000000	      0.00000000	      0.00000000	      0.00000000	      0.00000000	      0.00000000	      0.00000000	      0.00000000	      0.00000000	      0.00000000	   -429.81917205	    -41.70382553	     82.90370415	     -1.17543319	      7.80725832	     -2.06557626	    429.81917205	     41.70382553	    -82.90370415	     34.40598173	     -7.59667099	    174.45726013	     -2.73681385	     -1.00291313	     -0.82834974	      0.03630038	     -0.10333388	      0.00517774	      2.73681385	      1.00291313	      0.82834974	     -0.36142498	      0.06702670	      1.11297129	      0.00000000	      0.00000000	    589.37166071	    228.93249235	     25.74335895	     12.01484026	      3.00332413	      0.00000000	      0.00000000	      0.00000000	      0.00000000	      0.00000000	      0.00000001	      0.00000000	     19.10100000	   -108.32880000	      0.00000000
